# xmcd
#
# Track frame offsets:
# 150
# 26527
# 48960
# 69858
# 91018
# 118334
# 155572
# 180103
# 210894
# 233703
# 252806
# 277318
# 304221
# 327886
#
# Disc length: 4693 seconds
#
#
# Revision: 0
# Processed by: cddbd v1.5.2PL0 Copyright (c) Steve Scherf et al.
# Submitted via: FreeRIP 2.96 
#
DISCID=b112530e
DTITLE=Douglas Preston und Lincoln Child - Attic - Gefahr aus der Tiefe CD2v6
DYEAR=2007
DGENRE=Speech
TTITLE0=15 Attic
TTITLE1=16 Attic
TTITLE2=17 Attic
TTITLE3=18 Attic
TTITLE4=19 Attic
TTITLE5=20 Attic
TTITLE6=21 Attic
TTITLE7=22 Attic
TTITLE8=23 Attic
TTITLE9=24 Attic
TTITLE10=25 Attic
TTITLE11=26 Attic
TTITLE12=27 Attic
TTITLE13=28 Attic
EXTD=gelesen von Thomas Piper
EXTT0=
EXTT1=
EXTT2=
EXTT3=
EXTT4=
EXTT5=
EXTT6=
EXTT7=
EXTT8=
EXTT9=
EXTT10=
EXTT11=
EXTT12=
EXTT13=
PLAYORDER=
